<?xml version="1.0" encoding="UTF-8" standalone="no"?>
<!DOCTYPE svg PUBLIC "-//W3C//DTD SVG 1.1//EN" "http://www.w3.org/Graphics/SVG/1.1/DTD/svg11.dtd">
<svg width="100%" height="100%" viewBox="0 0 20 20" version="1.1" xmlns="http://www.w3.org/2000/svg" xmlns:xlink="http://www.w3.org/1999/xlink" xml:space="preserve" xmlns:serif="http://www.serif.com/" style="fill-rule:evenodd;clip-rule:evenodd;stroke-linejoin:round;stroke-miterlimit:2;">
    <g transform="matrix(1.03731,0,0,1.03731,-0.37312,-0.37312)">
        <g transform="matrix(17.9768,0,0,17.9768,6.86306,16.157)">
            <path d="M0.217,-0.552C0.198,-0.552 0.182,-0.558 0.169,-0.571C0.155,-0.583 0.148,-0.599 0.148,-0.62C0.148,-0.643 0.156,-0.663 0.172,-0.678C0.189,-0.693 0.207,-0.7 0.228,-0.7C0.248,-0.7 0.264,-0.694 0.277,-0.681C0.29,-0.668 0.296,-0.652 0.296,-0.632C0.296,-0.609 0.288,-0.59 0.272,-0.575C0.256,-0.56 0.238,-0.552 0.217,-0.552ZM0.124,0.015C0.103,0.015 0.086,0.01 0.073,-0.001C0.06,-0.012 0.053,-0.027 0.053,-0.048C0.053,-0.06 0.054,-0.074 0.057,-0.091C0.06,-0.108 0.063,-0.124 0.066,-0.141L0.113,-0.366C0.119,-0.393 0.109,-0.413 0.084,-0.424L0.068,-0.432L0.069,-0.443L0.257,-0.497L0.267,-0.488L0.189,-0.126C0.186,-0.114 0.184,-0.104 0.183,-0.096C0.182,-0.087 0.181,-0.079 0.181,-0.071C0.181,-0.056 0.188,-0.049 0.201,-0.049C0.211,-0.049 0.221,-0.052 0.231,-0.059C0.241,-0.065 0.254,-0.075 0.269,-0.09L0.278,-0.081C0.261,-0.056 0.24,-0.034 0.215,-0.015C0.189,0.005 0.159,0.015 0.124,0.015Z" style="fill-rule:nonzero;"/>
        </g>
        <g transform="matrix(0.838152,0,0,0.838152,1.61848,1.61848)">
            <path d="M10,-0.895C3.987,-0.895 -0.895,3.987 -0.895,10C-0.895,16.013 3.987,20.895 10,20.895C16.013,20.895 20.895,16.013 20.895,10C20.895,3.987 16.013,-0.895 10,-0.895ZM10,0.895C15.025,0.895 19.105,4.975 19.105,10C19.105,15.025 15.025,19.105 10,19.105C4.975,19.105 0.895,15.025 0.895,10C0.895,4.975 4.975,0.895 10,0.895Z"/>
        </g>
    </g>
</svg>
