<?xml version="1.0" encoding="UTF-8" standalone="no"?>
<!DOCTYPE svg PUBLIC "-//W3C//DTD SVG 1.1//EN" "http://www.w3.org/Graphics/SVG/1.1/DTD/svg11.dtd">
<svg width="100%" height="100%" viewBox="0 0 20 20" version="1.1" xmlns="http://www.w3.org/2000/svg" xmlns:xlink="http://www.w3.org/1999/xlink" xml:space="preserve" xmlns:serif="http://www.serif.com/" style="fill-rule:evenodd;clip-rule:evenodd;stroke-linejoin:round;stroke-miterlimit:2;">
    <g transform="matrix(1,0,0,1,-0.262513,-0.318133)">
        <g transform="matrix(0.822115,0,0,0.852081,0.590774,0.668057)">
            <path d="M17.945,7.52L17.945,3.261C17.945,2.36 17.194,1.634 16.274,1.634L2.214,1.634C1.294,1.634 0.542,2.36 0.542,3.261L0.542,15.304C0.542,16.206 1.294,16.932 2.214,16.932C2.214,16.932 9.464,16.932 9.464,16.932C9.812,16.932 10.095,16.659 10.095,16.323C10.095,15.987 9.812,15.714 9.464,15.714L2.214,15.714C1.986,15.714 1.804,15.528 1.804,15.304C1.804,15.304 1.804,3.261 1.804,3.261C1.804,3.038 1.986,2.852 2.214,2.852C2.214,2.852 16.274,2.852 16.274,2.852C16.502,2.852 16.683,3.038 16.683,3.261L16.683,7.52C16.683,7.856 16.966,8.129 17.314,8.129C17.662,8.129 17.945,7.856 17.945,7.52Z" />
        </g>
        <g transform="matrix(1.19451,0,0,1.19451,-1.70905,-1.53209)">
            <g transform="matrix(0.715791,-0.852603,0.709595,0.595731,-6.27284,13.4565)">
                <path d="M12.23,7.422L16.688,16.063C13.338,14.356 10.374,14.392 7.772,16.063L12.23,7.422Z" />
            </g>
            <g transform="matrix(0.642822,-0.766015,0.836066,0.701607,-7.67958,15.8886)">
                <rect x="15.541" y="10.717" width="1.529" height="6.05" />
            </g>
        </g>
    </g>
</svg>
