<?xml version="1.0" encoding="UTF-8" standalone="no"?>
<!DOCTYPE svg PUBLIC "-//W3C//DTD SVG 1.1//EN" "http://www.w3.org/Graphics/SVG/1.1/DTD/svg11.dtd">
<svg width="100%" height="100%" viewBox="0 0 20 20" version="1.1" xmlns="http://www.w3.org/2000/svg" xmlns:xlink="http://www.w3.org/1999/xlink" xml:space="preserve" xmlns:serif="http://www.serif.com/" style="fill-rule:evenodd;clip-rule:evenodd;stroke-linejoin:round;stroke-miterlimit:2;">
    <g transform="matrix(1.35791,0,0,1.35317,-3.65849,-4.3472)">
        <path d="M11.727,3.582C10.63,3.321 9.487,3.321 8.39,3.582L8.078,5.843C7.667,6.014 7.281,6.238 6.927,6.508L4.813,5.647C4.038,6.467 3.467,7.457 3.144,8.538L4.946,9.939C4.889,10.38 4.889,10.826 4.946,11.267L3.144,12.668C3.467,13.749 4.038,14.739 4.813,15.558L6.927,14.698C7.281,14.968 7.667,15.191 8.078,15.362L8.39,17.624C9.487,17.884 10.63,17.884 11.727,17.624L12.04,15.362C12.45,15.191 12.837,14.968 13.19,14.698L15.304,15.558C16.079,14.739 16.651,13.749 16.973,12.668L15.171,11.267C15.228,10.826 15.228,10.38 15.171,9.939L16.973,8.538C16.651,7.457 16.079,6.467 15.304,5.647L13.19,6.508C12.837,6.238 12.45,6.014 12.04,5.843L11.727,3.582ZM10.059,8.201C11.384,8.201 12.46,9.277 12.46,10.603C12.46,11.928 11.384,13.005 10.059,13.005C8.733,13.005 7.657,11.928 7.657,10.603C7.657,9.277 8.733,8.201 10.059,8.201Z"/>
    </g>
</svg>
